<svg xmlns="http://www.w3.org/2000/svg" viewBox="0 0 71.34 71.34"><defs><style>.cls-1{fill:#39afb5;}</style></defs><title>Akun_icon</title><g id="Layer_2" data-name="Layer 2"><g id="Layer_1-2" data-name="Layer 1"><path class="cls-1" d="M60.88,10.38A35.56,35.56,0,0,0,35.63,0h0a35.67,35.67,0,1,0,0,71.34h0A35.56,35.56,0,0,0,71.34,35.55,35.25,35.25,0,0,0,60.88,10.38Zm5.85,25.06a31.16,31.16,0,0,1-31,31.27h0A31.06,31.06,0,0,1,35.57,4.6h.11A31.06,31.06,0,0,1,66.73,35.44Z"/><circle class="cls-1" cx="35.67" cy="28.8" r="10.8"/><path class="cls-1" d="M35.68,69.78c7.59,0,14.74-4,20.22-11.3-4-9.76-11.56-16.34-20.23-16.34s-16.25,6.6-20.25,16.38c5.27,7,12.39,11.26,20.23,11.26Z"/></g></g></svg>