<svg xmlns="http://www.w3.org/2000/svg" viewBox="0 0 159.1 18.78"><defs><style>.cls-1{fill:#fff;}</style></defs><title>Gems_text</title><g id="Layer_2" data-name="Layer 2"><g id="Layer_1-2" data-name="Layer 1"><path class="cls-1" d="M15.53,17.65a18.47,18.47,0,0,1-5.85,1c-3.07,0-5.41-.77-7.13-2.42A9.09,9.09,0,0,1,0,9.56C0,3.79,4.12.11,10.13.11A12.22,12.22,0,0,1,15,1l-.74,2.67a9.81,9.81,0,0,0-4.13-.77c-3.87,0-6.61,2.29-6.61,6.52S6,16,9.8,16a6.51,6.51,0,0,0,2.51-.36V11.06H9.11V8.46h6.42Z"/><path class="cls-1" d="M29.09,10.41H22.24v5.34H29.9v2.73h-11V.3H29.5V3H22.24V7.7h6.85Z"/><path class="cls-1" d="M48.16,11.06c-.11-2.35-.23-5.17-.21-7.65h-.08c-.6,2.23-1.36,4.68-2.14,7l-2.67,7.86H40.5L38.09,10.5c-.71-2.33-1.36-4.8-1.84-7.09h-.06c-.07,2.38-.18,5.29-.32,7.76l-.41,7.31H32.37L33.58.3h4.36l2.37,7.3C41,9.75,41.55,11.91,42,13.93h.08c.49-2,1.11-4.21,1.82-6.34L46.4.3h4.31l1,18.18H48.52Z"/><path class="cls-1" d="M55.06,14.86A9.28,9.28,0,0,0,59.45,16c2.12,0,3.31-1,3.31-2.49s-.92-2.18-3.22-3c-3-1.07-4.93-2.68-4.93-5.29,0-3,2.49-5.22,6.44-5.22a9.68,9.68,0,0,1,4.36.9l-.8,2.68A7.88,7.88,0,0,0,61,2.73c-2.11,0-3,1.12-3,2.19C58,6.31,59,7,61.46,7.9c3.15,1.2,4.67,2.79,4.67,5.4,0,2.93-2.2,5.46-6.89,5.46a10.58,10.58,0,0,1-4.92-1.15Z"/><path class="cls-1" d="M74.71.53A29.8,29.8,0,0,1,79.79.16a8.21,8.21,0,0,1,5.36,1.48,5.14,5.14,0,0,1,1.78,4,5.57,5.57,0,0,1-1.55,4.12,8.05,8.05,0,0,1-5.75,2A8.68,8.68,0,0,1,78,11.62v6.86H74.71ZM78,9a6.69,6.69,0,0,0,1.63.15c2.48,0,4-1.24,4-3.37s-1.4-3.08-3.7-3.08A9.42,9.42,0,0,0,78,2.87Z"/><path class="cls-1" d="M105.93,9.21c0,6.08-3.69,9.57-8.7,9.57s-8.39-3.93-8.39-9.25C88.84,4,92.37,0,97.5,0,102.8,0,105.93,4,105.93,9.21Zm-13.58.25c0,3.71,1.87,6.66,5.05,6.66s5-3,5-6.79c0-3.43-1.7-6.67-5-6.67S92.35,5.73,92.35,9.46Z"/><path class="cls-1" d="M112.1.3V18.48h-3.32V.3Z"/><path class="cls-1" d="M115.9,18.48V.3h3.8l4.7,7.8a52.22,52.22,0,0,1,3.09,6.1l.07,0a74.65,74.65,0,0,1-.3-7.54V.3h3.07V18.48h-3.44l-4.75-8a63.35,63.35,0,0,1-3.26-6.27l-.08,0C118.93,6.59,119,9,119,12v6.51Z"/><path class="cls-1" d="M137.63,3.09h-5.19V.3H146.2V3.09H141V18.48h-3.33Z"/><path class="cls-1" d="M148,14.86A9.28,9.28,0,0,0,152.42,16c2.12,0,3.31-1,3.31-2.49s-.92-2.18-3.22-3c-3-1.07-4.93-2.68-4.93-5.29,0-3,2.49-5.22,6.44-5.22a9.68,9.68,0,0,1,4.36.9l-.8,2.68A7.88,7.88,0,0,0,154,2.73c-2.11,0-3,1.12-3,2.19,0,1.39,1.05,2.05,3.48,3,3.15,1.2,4.67,2.79,4.67,5.4,0,2.93-2.2,5.46-6.89,5.46a10.58,10.58,0,0,1-4.92-1.15Z"/></g></g></svg>