<svg xmlns="http://www.w3.org/2000/svg" viewBox="0 0 169.13 20.04"><defs><style>.cls-1{fill:#fff;}.cls-2{fill:#a5a0a4;}.cls-3{fill:#878286;}.cls-4{fill:#bcb7bb;}.cls-5{fill:#6d696d;}.cls-6{fill:#5b575b;}</style></defs><title>Ore_text_1</title><g id="Layer_2" data-name="Layer 2"><g id="Layer_1-2" data-name="Layer 1"><path class="cls-1" d="M17.48,9.92c0,6-3.6,9.57-8.92,9.57S0,15.41,0,10.23C0,4.79,3.5.72,8.85.72,14.43.72,17.48,4.89,17.48,9.92Zm-13.13.23c0,3.56,1.67,6.07,4.42,6.07s4.36-2.62,4.36-6.16C13.13,6.79,11.59,4,8.76,4S4.35,6.62,4.35,10.15Z"/><path class="cls-1" d="M20.2,1.26A35.06,35.06,0,0,1,25.66.87c2.7,0,4.59.41,5.88,1.44a4.61,4.61,0,0,1,1.69,3.81A4.82,4.82,0,0,1,30,10.59v.09c1.26.51,2,1.71,2.43,3.39.56,2.05,1.11,4.42,1.46,5.13h-4.2A22.49,22.49,0,0,1,28.46,15c-.51-2.27-1.28-2.88-3-2.9H24.27V19.2H20.2Zm4.07,7.82h1.61c2,0,3.26-1,3.26-2.62S28,4,26.12,3.94a9,9,0,0,0-1.85.13Z"/><path class="cls-1" d="M47,11.51H40.31v4.32h7.48V19.2H36.19V1H47.4V4.38H40.31V8.17H47Z"/><path class="cls-1" d="M56.05,1.26A32.92,32.92,0,0,1,61.6.87c2.52,0,4.35.49,5.56,1.47a5.24,5.24,0,0,1,1.93,4.21,5.69,5.69,0,0,1-1.66,4.3,8.47,8.47,0,0,1-5.9,1.93,10.59,10.59,0,0,1-1.4-.09V19.2H56.05ZM60.13,9.5a6.06,6.06,0,0,0,1.36.11c2.18,0,3.53-1.1,3.53-2.95C65,5,63.88,4,61.8,4a7.86,7.86,0,0,0-1.67.14Z"/><path class="cls-1" d="M88.36,9.92c0,6-3.61,9.57-8.92,9.57s-8.56-4.08-8.56-9.26c0-5.44,3.49-9.51,8.85-9.51C85.31.72,88.36,4.89,88.36,9.92Zm-13.14.23c0,3.56,1.68,6.07,4.42,6.07S84,13.6,84,10.06C84,6.79,82.46,4,79.63,4S75.22,6.62,75.22,10.15Z"/><path class="cls-1" d="M95.18,1V19.2H91.07V1Z"/><path class="cls-1" d="M98.76,19.2V1h4.79l3.77,6.67a52.49,52.49,0,0,1,3,6.24h.07A70,70,0,0,1,110,6.32V1h3.78V19.2H109.5l-3.9-7a67,67,0,0,1-3.15-6.42h-.1c.13,2.41.18,5,.18,8V19.2Z"/><path class="cls-1" d="M120.89,4.47H116V1h14V4.47h-5V19.2h-4.11Z"/><path class="cls-1" d="M132.05,15a10.09,10.09,0,0,0,4.56,1.15c1.89,0,2.89-.79,2.89-2s-.87-1.77-3.05-2.54c-3-1.07-5-2.73-5-5.38,0-3.1,2.6-5.46,6.88-5.46a10.66,10.66,0,0,1,4.64.92l-.91,3.29a8.79,8.79,0,0,0-3.8-.86c-1.79,0-2.64.83-2.64,1.76,0,1.15,1,1.66,3.37,2.55,3.22,1.21,4.71,2.88,4.71,5.45,0,3-2.33,5.64-7.33,5.64a11.72,11.72,0,0,1-5.14-1.13Z"/><path class="cls-2" d="M154.63,17.61l.1-.37.24-.84,0,0c.09-.32.17-.64.26-1,.24-1.13.46-2.27.66-3.38.12-.63.35-1.51.4-2.16a9.81,9.81,0,0,1-1.67,2.21c-.32.31-.78.3-.84,0-.09-.51-.39-.36-.69-.06-.12.16-.35.06-.52.23a3.17,3.17,0,0,0-.29.66,2.34,2.34,0,0,1-.72,1c0-.38.36-1.07.45-1.74a1.14,1.14,0,0,1,.72-1,10.19,10.19,0,0,0,2.2-1.4A6.51,6.51,0,0,0,156,8,3.4,3.4,0,0,0,156,6.62c0-.32.46-1,.49-1.29.09-1-.61-1.2-.47-1.73.21-.8.12-1.31-.12-1.24a4.37,4.37,0,0,0-1.55,1.12A4.13,4.13,0,0,0,154,4.7a1.13,1.13,0,0,0,.1.79c.09.11.19.45-.2.26s-.59.19-.77.64a44.19,44.19,0,0,0-1.74,5.52c-.31,1.28-1,3.08-.36,4.37.3.59,1.14,1,1.6,1.53s.85,1.33,1.45,1.62l.39-1.38C154.54,17.9,154.58,17.76,154.63,17.61Z"/><path class="cls-3" d="M154.73,17.24l.24-.84h0Z"/><path class="cls-3" d="M154.63,17.61c0,.15-.09.29-.13.44C154.54,17.9,154.58,17.76,154.63,17.61Z"/><path class="cls-2" d="M159.79,1.28c-.86-.35-1.58.46-1.78,1.12s0,1.27-.38,1.79c-.67,1-.52,2.28-.67,3.61-.17,1.53-.22,3.09-.26,3.42a10.07,10.07,0,0,1-.36,1.9l.27-.17c2-1.06.61-3.59,2-5.29a4.93,4.93,0,0,0,1-1.27,6.47,6.47,0,0,0,.2-1.76c0-.33-.71-1.61-.07-2.25s1.31.53,2.22.36l.1,0a8.19,8.19,0,0,0-1-.82A8.91,8.91,0,0,0,159.79,1.28Z"/><path class="cls-4" d="M156.3,11.05l0-.22Z"/><path class="cls-4" d="M156.42,10.36c0-.1,0-.2,0-.3C156.44,10.16,156.43,10.26,156.42,10.36Z"/><path class="cls-4" d="M156,12.43a.36.36,0,0,0,0-.1A.36.36,0,0,1,156,12.43Z"/><path class="cls-4" d="M156.52,9.66c0-.13,0-.26,0-.39C156.55,9.4,156.54,9.53,156.52,9.66Z"/><path class="cls-4" d="M155.85,13.11v0Z"/><path class="cls-4" d="M156.16,11.74l0-.15Z"/><path class="cls-4" d="M156.6,9c0-.23.05-.47.07-.7C156.65,8.49,156.63,8.73,156.6,9Z"/><polygon class="cls-4" points="155.68 13.79 155.68 13.79 155.68 13.79 155.68 13.79"/><path class="cls-4" d="M155.93,2.36c.24-.07.33.44.12,1.24-.14.53.56.76.47,1.73,0,.32-.48,1-.49,1.29A3.4,3.4,0,0,1,156,8a6.51,6.51,0,0,1-1.06,1.83,10.19,10.19,0,0,1-2.2,1.4,1.14,1.14,0,0,0-.72,1c-.09.67-.45,1.36-.45,1.74a2.34,2.34,0,0,0,.72-1,3.17,3.17,0,0,1,.29-.66c.17-.17.4-.07.52-.23.3-.3.6-.45.69.06.06.29.52.3.84,0a9.81,9.81,0,0,0,1.67-2.21c0,.65-.28,1.53-.4,2.16-.2,1.11-.42,2.25-.66,3.38-.09.32-.17.64-.26,1l0,0c.25-.86.49-1.73.71-2.61h0c.06-.22.12-.45.17-.68v0l.15-.64a.36.36,0,0,0,0-.1c.05-.2.09-.39.13-.59l0-.15c0-.18.07-.36.11-.54l0-.22.09-.47c0-.1,0-.2,0-.3l.06-.4c0-.13,0-.26,0-.39l0-.31c0-.23.05-.47.07-.7.14-1.95.17-3.92.26-5.87,0-.23,0-1.17,0-2.38h-.05a12.34,12.34,0,0,0-2.53,3.48A4.37,4.37,0,0,1,155.93,2.36Z"/><path class="cls-4" d="M155.68,13.79h0c-.22.88-.46,1.75-.71,2.61a7.86,7.86,0,0,0,1.16-2.61c.08-.23.15-.45.21-.67A4.2,4.2,0,0,0,155.68,13.79Z"/><path class="cls-4" d="M162.37,2.67l-.35.05a5.62,5.62,0,0,0,1.52,1.13A16.28,16.28,0,0,0,162.37,2.67Z"/><path class="cls-4" d="M155,16.4h0c.25-.86.49-1.73.71-2.61C155.46,14.67,155.22,15.54,155,16.4Z"/><path class="cls-4" d="M157,0c0,1.21,0,2.15,0,2.38-.09,1.95-.12,3.92-.26,5.87,0,.23,0,.47-.07.7l0,.31c0,.13,0,.26,0,.39l-.06.4c0,.1,0,.2,0,.3l-.09.47,0,.22c0,.18-.07.36-.11.54l0,.15c0,.2-.08.39-.13.59a.36.36,0,0,1,0,.1l-.15.64v0c0,.23-.11.46-.17.68h0a4.2,4.2,0,0,1,.66-.67,10.07,10.07,0,0,0,.36-1.9c0-.33.09-1.89.26-3.42.15-1.33,0-2.58.67-3.61.33-.52.21-1.21.38-1.79s.92-1.47,1.78-1.12A8.91,8.91,0,0,1,161,1.9a8.19,8.19,0,0,1,1,.82l.35-.05A10.22,10.22,0,0,0,157,0Z"/><path class="cls-4" d="M155.68,13.79c.06-.22.12-.45.17-.68C155.8,13.34,155.74,13.57,155.68,13.79Z"/><path class="cls-4" d="M155.86,13.07l.15-.64Z"/><path class="cls-4" d="M156.57,9.27l0-.31Z"/><path class="cls-4" d="M156.33,10.83l.09-.47Z"/><path class="cls-4" d="M156.19,11.59c0-.18.07-.36.11-.54C156.26,11.23,156.23,11.41,156.19,11.59Z"/><path class="cls-4" d="M156.46,10.06l.06-.4Z"/><path class="cls-4" d="M156,12.33c.05-.2.09-.39.13-.59C156.12,11.94,156.08,12.13,156,12.33Z"/><path class="cls-5" d="M165.89,16.12c.16-.31,1.13-1.29,1.16-1.52.12-1,.87-1.39.31-2.27-1.11-1.74-.81-2.53-1.47-3.22A2.5,2.5,0,0,1,165.23,6c-.36-.54-.75-1.06-1.16-1.56-.17-.21-.34-.41-.52-.61,0,.11,0,.25,0,.42a9,9,0,0,0,.51,3c0,.18.11.37.15.57a5,5,0,0,0,.89,1.85,1.81,1.81,0,0,1,.58,1.49,4.51,4.51,0,0,0,.07,1,4.51,4.51,0,0,1,.18.81,1,1,0,0,1-.49.86c-.89.63-2.06.75-3,1.35a22.16,22.16,0,0,0-2.34,2,8.06,8.06,0,0,0-1,2.78l.22,0c2.08-.47,3.79-.18,5.77-.65a8.56,8.56,0,0,0,.76-1.48C166.1,17.12,165.54,16.83,165.89,16.12Z"/><path class="cls-6" d="M166.82,18.06a2.57,2.57,0,0,0,2-1c.77-1.49-.18-3.76-.73-5.32A24.63,24.63,0,0,0,165.23,6a2.5,2.5,0,0,0,.66,3.08c.66.69.36,1.48,1.47,3.22.56.88-.19,1.25-.31,2.27,0,.23-1,1.21-1.16,1.52-.35.71.21,1-.08,1.71a8.56,8.56,0,0,1-.76,1.48l.11,0C165.87,19.11,166.06,18.13,166.82,18.06Z"/><path class="cls-3" d="M159.69,16.43A7.12,7.12,0,0,1,162,13.12a2.92,2.92,0,0,0,1.34-2.53,5.73,5.73,0,0,1,.95-2.37l-.14-.39c0-.2-.1-.39-.15-.57a9,9,0,0,1-.51-3c0-.17,0-.31,0-.42h0A5.62,5.62,0,0,1,162,2.72l-.1,0c-.91.17-1.47-1.13-2.22-.36s.09,1.92.07,2.25a6.47,6.47,0,0,1-.2,1.76,4.93,4.93,0,0,1-1,1.27c-1.38,1.7,0,4.23-2,5.29l-.27.17c-.06.22-.13.44-.21.67A7.86,7.86,0,0,1,155,16.4l-.24.84-.1.37c0,.15-.09.29-.13.44l-.39,1.38a1.28,1.28,0,0,0,.69.12c1.59-.12,2.81.68,4.26.45a10.13,10.13,0,0,1,.48-1.7A3.29,3.29,0,0,1,159.69,16.43Z"/><path class="cls-2" d="M159.76,18.74v0C159.75,18.77,159.75,18.79,159.76,18.74Z"/><path class="cls-2" d="M162.42,15.23c.92-.6,2.09-.72,3-1.35a1,1,0,0,0,.49-.86,4.51,4.51,0,0,0-.18-.81,4.51,4.51,0,0,1-.07-1,1.81,1.81,0,0,0-.58-1.49,3.91,3.91,0,0,1-.75-1.46,5.73,5.73,0,0,0-.95,2.37A2.92,2.92,0,0,1,162,13.12a7.12,7.12,0,0,0-2.33,3.31,3.29,3.29,0,0,0-.15,1.87,6.41,6.41,0,0,1,.54-1.08A22.16,22.16,0,0,1,162.42,15.23Z"/></g></g></svg>