<svg xmlns="http://www.w3.org/2000/svg" viewBox="0 0 194.73 18.78"><defs><style>.cls-1{fill:#fff;}.cls-2{fill:#9cefef;}.cls-3{fill:#b0f2f2;}.cls-4{fill:#cdf7f7;}.cls-5{fill:#7feaea;}</style></defs><title>Points_text</title><g id="Layer_2" data-name="Layer 2"><g id="Layer_1-2" data-name="Layer 1"><path class="cls-1" d="M16,17.64a20.12,20.12,0,0,1-6.07,1c-3.32,0-5.72-.83-7.39-2.44A8.93,8.93,0,0,1,0,9.6C0,3.55,4.43.11,10.38.11A12.71,12.71,0,0,1,15.44,1l-.86,3.29a10.13,10.13,0,0,0-4.23-.77c-3.43,0-6,1.93-6,5.88,0,3.76,2.37,6,5.74,6a5.84,5.84,0,0,0,2-.26V11.27H9.25V8.06H16Z"/><path class="cls-1" d="M30.05,10.79H23.36v4.32h7.48v3.37H19.25V.3h11.2V3.66H23.36V7.45h6.69Z"/><path class="cls-1" d="M49,11.52c-.09-2.2-.17-4.82-.16-7.49h-.08c-.58,2.33-1.34,4.92-2,7.06l-2.22,7.09h-3.2l-2-7C38.8,9,38.19,6.43,37.74,4h-.05c-.09,2.48-.19,5.28-.3,7.55l-.34,6.9H33.24L34.41.3h5.48l1.77,6.07c.58,2.09,1.14,4.37,1.54,6.5h.09c.5-2.1,1.11-4.5,1.73-6.52L47,.3h5.38l1,18.18h-4Z"/><path class="cls-1" d="M56.62,14.24a10.22,10.22,0,0,0,4.55,1.14c1.89,0,2.89-.79,2.89-2s-.86-1.78-3-2.54c-3-1.08-5-2.73-5-5.39C56,2.37,58.61,0,62.88,0a10.86,10.86,0,0,1,4.65.92l-.91,3.3a8.63,8.63,0,0,0-3.8-.87c-1.79,0-2.64.83-2.64,1.76,0,1.16,1,1.67,3.36,2.56,3.22,1.2,4.71,2.87,4.71,5.44,0,3-2.32,5.64-7.33,5.64a11.71,11.71,0,0,1-5.13-1.13Z"/><path class="cls-1" d="M76.5.54A34.26,34.26,0,0,1,82.05.16c2.52,0,4.35.49,5.57,1.46a5.28,5.28,0,0,1,1.92,4.21,5.69,5.69,0,0,1-1.66,4.3A8.47,8.47,0,0,1,82,12.06a9.12,9.12,0,0,1-1.4-.09v6.51H76.5Zm4.08,8.24a6.06,6.06,0,0,0,1.36.11c2.18,0,3.53-1.1,3.53-2.94,0-1.68-1.14-2.67-3.22-2.67a8.14,8.14,0,0,0-1.67.13Z"/><path class="cls-1" d="M108.81,9.21c0,6-3.6,9.57-8.92,9.57s-8.56-4.08-8.56-9.27c0-5.43,3.49-9.51,8.85-9.51C105.76,0,108.81,4.18,108.81,9.21Zm-13.14.22c0,3.57,1.68,6.08,4.42,6.08s4.37-2.63,4.37-6.16c0-3.28-1.55-6.08-4.38-6.08S95.67,5.9,95.67,9.43Z"/><path class="cls-1" d="M115.63.3V18.48h-4.11V.3Z"/><path class="cls-1" d="M119.21,18.48V.3H124L127.77,7a51.62,51.62,0,0,1,3,6.23h.07a69.84,69.84,0,0,1-.34-7.59V.3h3.78V18.48H130l-3.9-7a66.08,66.08,0,0,1-3.15-6.43h-.1c.13,2.41.18,5,.18,8v5.47Z"/><path class="cls-1" d="M141.34,3.75h-4.91V.3h14V3.75h-5V18.48h-4.11Z"/><path class="cls-1" d="M152.5,14.24a10.23,10.23,0,0,0,4.56,1.14c1.89,0,2.89-.79,2.89-2s-.87-1.78-3-2.54c-3-1.08-5-2.73-5-5.39,0-3.1,2.6-5.46,6.88-5.46a10.81,10.81,0,0,1,4.64.92l-.91,3.3a8.61,8.61,0,0,0-3.79-.87c-1.79,0-2.65.83-2.65,1.76,0,1.16,1,1.67,3.37,2.56,3.22,1.2,4.71,2.87,4.71,5.44,0,3-2.33,5.64-7.33,5.64a11.76,11.76,0,0,1-5.14-1.13Z"/><polygon class="cls-2" points="174.87 0.22 174.84 0.25 177.33 5.69 182.08 0.32 182.08 0.22 174.87 0.22"/><polygon class="cls-3" points="177.33 5.69 182.08 5.69 182.08 0.32 177.33 5.69"/><polygon class="cls-4" points="182.08 5.69 177.33 5.69 182.08 18.15 182.08 5.69"/><polygon class="cls-5" points="174.79 0.3 169.44 5.69 173.84 5.69 174.79 0.3"/><polygon class="cls-3" points="177.33 5.69 174.84 0.25 174.79 0.3 173.84 5.69 177.33 5.69"/><polygon class="cls-5" points="182.08 18.28 182.08 18.15 177.33 5.69 173.84 5.69 182.08 18.28"/><polygon class="cls-2" points="173.84 5.69 169.44 5.69 169.42 5.71 182.08 18.39 182.08 18.28 173.84 5.69"/><polygon class="cls-4" points="189.28 0.22 189.31 0.25 186.82 5.69 182.08 0.32 182.08 0.22 189.28 0.22"/><polygon class="cls-2" points="186.82 5.69 182.08 5.69 182.08 0.32 186.82 5.69"/><polygon class="cls-3" points="182.08 5.69 186.82 5.69 182.08 18.15 182.08 5.69"/><polygon class="cls-4" points="189.36 0.3 194.71 5.69 190.31 5.69 189.36 0.3"/><polygon class="cls-5" points="186.82 5.69 189.31 0.25 189.36 0.3 190.31 5.69 186.82 5.69"/><polygon class="cls-2" points="182.08 18.28 182.08 18.15 186.82 5.69 190.31 5.69 182.08 18.28"/><polygon class="cls-3" points="190.31 5.69 194.71 5.69 194.73 5.71 182.08 18.39 182.08 18.28 190.31 5.69"/></g></g></svg>