<svg xmlns="http://www.w3.org/2000/svg" viewBox="0 0 27.77 51.52"><defs><style>.cls-1{fill:#f9663e;}</style></defs><title>Pulsa_icon</title><g id="Layer_2" data-name="Layer 2"><g id="Layer_1-2" data-name="Layer 1"><path class="cls-1" d="M4.56,26.64c0-.13,0-.24,0-.34,0-2.38,0-4.75,0-7.13,0-.88,0-1.77,0-2.65,0-.22.06-.32.3-.31,2,0,3.93-.06,5.89.05a2.88,2.88,0,0,1,2.34,4.51,6.32,6.32,0,0,1-1.09,1c0-.08,0-.05,0,0a2.47,2.47,0,0,1,1.44,2.41c0,.51.06,1,.13,1.55a7.12,7.12,0,0,0,.26.94H12.29c-.94,0-1,0-1.07-1a17.23,17.23,0,0,0-.2-1.76,1.39,1.39,0,0,0-1.54-1.33c-.79-.05-1.59,0-2.39,0a.68.68,0,0,0-.15,0v3.72c0,.14,0,.3-.2.3ZM7,20.9c1,0,1.92.05,2.85,0a1.23,1.23,0,0,0,1.31-1.4,1.38,1.38,0,0,0,0-.29A1.11,1.11,0,0,0,10,18.08c-.6-.06-1.2,0-1.81-.06H7Z"/><path class="cls-1" d="M17.39,29.26c-.7,0-1.36,0-2,0-.07,0-.17-.23-.17-.35,0-1.19,0-2.38,0-3.56,0-2,0-3.92,0-5.87,0-.29.07-.41.39-.39s.92,0,1.38,0c.25,0,.35.08.34.32a4.47,4.47,0,0,0,0,.52,8.36,8.36,0,0,1,.75-.63,3.37,3.37,0,0,1,4.34.91,4.6,4.6,0,0,1,.13,5.16,3.19,3.19,0,0,1-5,.5s-.05,0-.13-.09v3.49Zm3.69-6.45a4.18,4.18,0,0,0-.43-1.46A1.56,1.56,0,0,0,19,20.48a1.52,1.52,0,0,0-1.39,1,3.52,3.52,0,0,0,0,2.81,1.66,1.66,0,0,0,1.66,1,1.62,1.62,0,0,0,1.56-1.13A3.67,3.67,0,0,0,21.08,22.81Z"/><path class="cls-1" d="M0,25.76C0,18,0,10.18,0,2.39A2.19,2.19,0,0,1,2.38,0c7.7,0,15.41,0,23.11,0a2,2,0,0,1,2.28,2.3V49.21c0,1.6-.7,2.31-2.3,2.31q-11.59,0-23.17,0A2.3,2.3,0,0,1,.64,51,2.1,2.1,0,0,1,0,49.34Q0,41.18,0,33ZM26.1,43.69V4.07H1.7V43.69ZM15.9,47.74a2,2,0,1,0-3.9,0,2,2,0,0,0,1.92,2A2,2,0,0,0,15.9,47.74Z"/></g></g></svg>