<svg xmlns="http://www.w3.org/2000/svg" viewBox="0 0 82.16 18.78"><defs><style>.cls-1{fill:#fff;}</style></defs><title>Saldo_text</title><g id="Layer_2" data-name="Layer 2"><g id="Layer_1-2" data-name="Layer 1"><path class="cls-1" d="M.83,14.24a10.23,10.23,0,0,0,4.56,1.14c1.89,0,2.89-.79,2.89-2s-.87-1.78-3-2.54c-3-1.08-5-2.73-5-5.39C.22,2.37,2.82,0,7.1,0a10.81,10.81,0,0,1,4.64.92l-.91,3.3A8.61,8.61,0,0,0,7,3.36c-1.79,0-2.65.83-2.65,1.76,0,1.16,1,1.67,3.37,2.56,3.22,1.2,4.71,2.87,4.71,5.44,0,3-2.33,5.64-7.33,5.64A11.76,11.76,0,0,1,0,17.63Z"/><path class="cls-1" d="M19.48,13.81,18.2,18.48H14L19.5.3h5.38l5.66,18.18H26.11l-1.4-4.67Zm4.62-3.06L23,6.88c-.32-1.07-.64-2.43-.92-3.5H22c-.27,1.07-.54,2.45-.84,3.51l-1.08,3.86Z"/><path class="cls-1" d="M33,.3h4.12V15h7.23v3.45H33Z"/><path class="cls-1" d="M46.75.55A35.57,35.57,0,0,1,52.29.16c3.45,0,5.71.63,7.45,2A8,8,0,0,1,62.81,9a9.23,9.23,0,0,1-3,7.36c-1.92,1.6-4.85,2.36-8.39,2.36a34.48,34.48,0,0,1-4.67-.27Zm4.11,14.83a8.77,8.77,0,0,0,1.43.08c3.72,0,6.17-2,6.17-6.38,0-3.77-2.2-5.76-5.74-5.76a8.9,8.9,0,0,0-1.86.16Z"/><path class="cls-1" d="M82.16,9.21c0,6-3.6,9.57-8.92,9.57s-8.56-4.08-8.56-9.27C64.68,4.08,68.17,0,73.53,0,79.11,0,82.16,4.18,82.16,9.21ZM69,9.43c0,3.57,1.68,6.08,4.42,6.08s4.37-2.63,4.37-6.16c0-3.28-1.55-6.08-4.38-6.08S69,5.9,69,9.43Z"/></g></g></svg>