<svg xmlns="http://www.w3.org/2000/svg" viewBox="0 0 46.8 32.24"><defs><style>.cls-1{fill:#fff;}</style></defs><title>Wallet_icon_1</title><g id="Layer_2" data-name="Layer 2"><g id="Layer_1-2" data-name="Layer 1"><polygon class="cls-1" points="46.8 27.84 46.8 20.57 39.39 20.57 46.8 27.84"/><path class="cls-1" d="M46.8,29.05a3,3,0,0,1,0,.43l0,0Z"/><path class="cls-1" d="M31.24,13.2a3.18,3.18,0,0,0-3.33,3,3.18,3.18,0,0,0,3.33,3H46.79v-6Zm.17,5.2a2.2,2.2,0,1,1,2.19-2.2A2.19,2.19,0,0,1,31.41,18.4Z"/><path class="cls-1" d="M30.64,11.84H46.8V3.19A3.12,3.12,0,0,0,43.74,0H2.41A2.41,2.41,0,0,0,.05,2H4.32l-4,4L0,5.56v.79L2.55,8.87,0,11.44H0v.63l3-3,9.22,9.21L9.72,20.73,3,14,.68,16.31l6.67,6.76L4.88,25.51,0,20.56v5l2.37,2.4L.05,30.21a2.41,2.41,0,0,0,2.36,2H4.57a2.83,2.83,0,0,0,.42.07H43.74a3.1,3.1,0,0,0,3-2.76l-9.27-8.91H30.64a4.37,4.37,0,0,1,0-8.73Zm-18.11,6-2.4-2.4,4.21-4.22L12.06,9,7.82,13.12,5.44,10.69l4.19-4.1L7.37,4.35,3.22,8.45.83,6,4.94,2H9.79l9.39,9.25Z"/></g></g></svg>